HIERARCHY
ROOT mixamorig:Hips
{
	OFFSET -0.000008 104.274872 1.554316
	CHANNELS 6 Xposition Yposition Zposition Xrotation Yrotation Zrotation
	JOINT mixamorig:Spine
	{
		OFFSET -0.000005 10.181595 0.131519
		CHANNELS 6 Xposition Yposition Zposition Xrotation Yrotation Zrotation
		JOINT mixamorig:Spine1
		{
			OFFSET -0.000000 9.893959 -1.470707
			CHANNELS 6 Xposition Yposition Zposition Xrotation Yrotation Zrotation
			JOINT mixamorig:Spine2
			{
				OFFSET -0.000000 9.220757 -1.370641
				CHANNELS 6 Xposition Yposition Zposition Xrotation Yrotation Zrotation
				JOINT mixamorig:Neck
				{
					OFFSET 0.000001 16.740417 -2.049036
					CHANNELS 6 Xposition Yposition Zposition Xrotation Yrotation Zrotation
					JOINT mixamorig:Head
					{
						OFFSET 0.000000 9.617874 1.685006
						CHANNELS 6 Xposition Yposition Zposition Xrotation Yrotation Zrotation
						JOINT mixamorig:HeadTop_End
						{
							OFFSET 0.000002 22.037354 7.501101
							CHANNELS 6 Xposition Yposition Zposition Xrotation Yrotation Zrotation
							End Site
							{
								OFFSET 0.000168 2310.654297 -282.823242
							}
						}
					}
				}
				JOINT mixamorig:RightShoulder
				{
					OFFSET -4.569970 11.014908 -2.160885
					CHANNELS 6 Xposition Yposition Zposition Xrotation Yrotation Zrotation
					JOINT mixamorig:RightArm
					{
						OFFSET -10.592851 -0.524811 -2.232101
						CHANNELS 6 Xposition Yposition Zposition Xrotation Yrotation Zrotation
						JOINT mixamorig:RightForeArm
						{
							OFFSET -27.841511 0.000031 -0.000004
							CHANNELS 6 Xposition Yposition Zposition Xrotation Yrotation Zrotation
							JOINT mixamorig:RightHand
							{
								OFFSET -28.328831 -0.000015 0.000015
								CHANNELS 6 Xposition Yposition Zposition Xrotation Yrotation Zrotation
								JOINT mixamorig:RightHandThumb1
								{
									OFFSET -2.464806 -1.573990 2.681852
									CHANNELS 6 Xposition Yposition Zposition Xrotation Yrotation Zrotation
									JOINT mixamorig:RightHandThumb2
									{
										OFFSET -3.215179 -1.872803 1.924282
										CHANNELS 6 Xposition Yposition Zposition Xrotation Yrotation Zrotation
										JOINT mixamorig:RightHandThumb3
										{
											OFFSET -2.654831 -1.527969 1.512609
											CHANNELS 6 Xposition Yposition Zposition Xrotation Yrotation Zrotation
											JOINT mixamorig:RightHandThumb4
											{
												OFFSET -2.018814 -1.152008 1.108052
												CHANNELS 6 Xposition Yposition Zposition Xrotation Yrotation Zrotation
												End Site
												{
													OFFSET -188.809540 -114.533607 132.431396
												}
											}
										}
									}
								}
								JOINT mixamorig:RightHandIndex1
								{
									OFFSET -9.108284 -0.517868 2.259835
									CHANNELS 6 Xposition Yposition Zposition Xrotation Yrotation Zrotation
									JOINT mixamorig:RightHandIndex2
									{
										OFFSET -3.699989 0.000000 0.001215
										CHANNELS 6 Xposition Yposition Zposition Xrotation Yrotation Zrotation
										JOINT mixamorig:RightHandIndex3
										{
											OFFSET -2.850006 0.000031 -0.000522
											CHANNELS 6 Xposition Yposition Zposition Xrotation Yrotation Zrotation
											JOINT mixamorig:RightHandIndex4
											{
												OFFSET -2.772186 -0.000015 -0.000020
												CHANNELS 6 Xposition Yposition Zposition Xrotation Yrotation Zrotation
												End Site
												{
													OFFSET -277.218445 0.000000 -0.050231
												}
											}
										}
									}
								}
								JOINT mixamorig:RightHandMiddle1
								{
									OFFSET -9.532516 -0.000031 -0.000023
									CHANNELS 6 Xposition Yposition Zposition Xrotation Yrotation Zrotation
									JOINT mixamorig:RightHandMiddle2
									{
										OFFSET -3.700005 -0.000015 0.003713
										CHANNELS 6 Xposition Yposition Zposition Xrotation Yrotation Zrotation
										JOINT mixamorig:RightHandMiddle3
										{
											OFFSET -2.949974 0.000015 -0.002054
											CHANNELS 6 Xposition Yposition Zposition Xrotation Yrotation Zrotation
											JOINT mixamorig:RightHandMiddle4
											{
												OFFSET -2.946640 0.000000 -0.000156
												CHANNELS 6 Xposition Yposition Zposition Xrotation Yrotation Zrotation
												End Site
												{
													OFFSET -294.664337 0.000000 -0.113670
												}
											}
										}
									}
								}
								JOINT mixamorig:RightHandRing1
								{
									OFFSET -9.103600 -0.043076 -1.865134
									CHANNELS 6 Xposition Yposition Zposition Xrotation Yrotation Zrotation
									JOINT mixamorig:RightHandRing2
									{
										OFFSET -3.379288 0.000000 -0.001055
										CHANNELS 6 Xposition Yposition Zposition Xrotation Yrotation Zrotation
										JOINT mixamorig:RightHandRing3
										{
											OFFSET -2.889687 -0.000015 0.000379
											CHANNELS 6 Xposition Yposition Zposition Xrotation Yrotation Zrotation
											JOINT mixamorig:RightHandRing4
											{
												OFFSET -2.638809 -0.000015 0.000941
												CHANNELS 6 Xposition Yposition Zposition Xrotation Yrotation Zrotation
												End Site
												{
													OFFSET -263.880371 0.000000 0.516020
												}
											}
										}
									}
								}
								JOINT mixamorig:RightHandPinky1
								{
									OFFSET -8.076683 -0.486710 -3.806280
									CHANNELS 6 Xposition Yposition Zposition Xrotation Yrotation Zrotation
									JOINT mixamorig:RightHandPinky2
									{
										OFFSET -3.600014 -0.000015 -0.003747
										CHANNELS 6 Xposition Yposition Zposition Xrotation Yrotation Zrotation
										JOINT mixamorig:RightHandPinky3
										{
											OFFSET -2.099983 0.000000 -0.005739
											CHANNELS 6 Xposition Yposition Zposition Xrotation Yrotation Zrotation
											JOINT mixamorig:RightHandPinky4
											{
												OFFSET -2.115768 -0.000031 -0.003680
												CHANNELS 6 Xposition Yposition Zposition Xrotation Yrotation Zrotation
												End Site
												{
													OFFSET -211.577087 0.000000 -0.350686
												}
											}
										}
									}
								}
							}
						}
					}
				}
				JOINT mixamorig:LeftShoulder
				{
					OFFSET 4.570447 11.014725 -2.160855
					CHANNELS 6 Xposition Yposition Zposition Xrotation Yrotation Zrotation
					JOINT mixamorig:LeftArm
					{
						OFFSET 10.592371 -0.524597 -2.232119
						CHANNELS 6 Xposition Yposition Zposition Xrotation Yrotation Zrotation
						JOINT mixamorig:LeftForeArm
						{
							OFFSET 27.841532 -0.000031 0.000026
							CHANNELS 6 Xposition Yposition Zposition Xrotation Yrotation Zrotation
							JOINT mixamorig:LeftHand
							{
								OFFSET 28.328846 -0.000061 0.000022
								CHANNELS 6 Xposition Yposition Zposition Xrotation Yrotation Zrotation
								JOINT mixamorig:LeftHandThumb1
								{
									OFFSET 2.466141 -1.576172 2.681732
									CHANNELS 6 Xposition Yposition Zposition Xrotation Yrotation Zrotation
									JOINT mixamorig:LeftHandThumb2
									{
										OFFSET 3.217812 -1.872070 1.916482
										CHANNELS 6 Xposition Yposition Zposition Xrotation Yrotation Zrotation
										JOINT mixamorig:LeftHandThumb3
										{
											OFFSET 2.656029 -1.528778 1.514513
											CHANNELS 6 Xposition Yposition Zposition Xrotation Yrotation Zrotation
											JOINT mixamorig:LeftHandThumb4
											{
												OFFSET 2.020889 -1.154053 1.115139
												CHANNELS 6 Xposition Yposition Zposition Xrotation Yrotation Zrotation
												End Site
												{
													OFFSET 190.885437 -115.081749 130.048782
												}
											}
										}
									}
								}
								JOINT mixamorig:LeftHandIndex1
								{
									OFFSET 9.109314 -0.518021 2.259871
									CHANNELS 6 Xposition Yposition Zposition Xrotation Yrotation Zrotation
									JOINT mixamorig:LeftHandIndex2
									{
										OFFSET 3.699989 0.000000 -0.000322
										CHANNELS 6 Xposition Yposition Zposition Xrotation Yrotation Zrotation
										JOINT mixamorig:LeftHandIndex3
										{
											OFFSET 2.850006 0.000000 0.000352
											CHANNELS 6 Xposition Yposition Zposition Xrotation Yrotation Zrotation
											JOINT mixamorig:LeftHandIndex4
											{
												OFFSET 2.774864 -0.000031 -0.000027
												CHANNELS 6 Xposition Yposition Zposition Xrotation Yrotation Zrotation
												End Site
												{
													OFFSET 277.486267 0.000000 -0.009857
												}
											}
										}
									}
								}
								JOINT mixamorig:LeftHandMiddle1
								{
									OFFSET 9.533394 0.000061 0.000044
									CHANNELS 6 Xposition Yposition Zposition Xrotation Yrotation Zrotation
									JOINT mixamorig:LeftHandMiddle2
									{
										OFFSET 3.699989 -0.000015 -0.000231
										CHANNELS 6 Xposition Yposition Zposition Xrotation Yrotation Zrotation
										JOINT mixamorig:LeftHandMiddle3
										{
											OFFSET 2.949997 -0.000015 -0.000059
											CHANNELS 6 Xposition Yposition Zposition Xrotation Yrotation Zrotation
											JOINT mixamorig:LeftHandMiddle4
											{
												OFFSET 2.952896 0.000031 0.000063
												CHANNELS 6 Xposition Yposition Zposition Xrotation Yrotation Zrotation
												End Site
												{
													OFFSET 295.289337 0.000000 0.022810
												}
											}
										}
									}
								}
								JOINT mixamorig:LeftHandRing1
								{
									OFFSET 9.104523 -0.042999 -1.865074
									CHANNELS 6 Xposition Yposition Zposition Xrotation Yrotation Zrotation
									JOINT mixamorig:LeftHandRing2
									{
										OFFSET 3.150009 -0.000031 0.000043
										CHANNELS 6 Xposition Yposition Zposition Xrotation Yrotation Zrotation
										JOINT mixamorig:LeftHandRing3
										{
											OFFSET 2.949982 -0.000015 0.000040
											CHANNELS 6 Xposition Yposition Zposition Xrotation Yrotation Zrotation
											JOINT mixamorig:LeftHandRing4
											{
												OFFSET 2.644348 0.000000 0.000057
												CHANNELS 6 Xposition Yposition Zposition Xrotation Yrotation Zrotation
												End Site
												{
													OFFSET 264.434631 0.000000 0.012105
												}
											}
										}
									}
								}
								JOINT mixamorig:LeftHandPinky1
								{
									OFFSET 8.077789 -0.486847 -3.806259
									CHANNELS 6 Xposition Yposition Zposition Xrotation Yrotation Zrotation
									JOINT mixamorig:LeftHandPinky2
									{
										OFFSET 3.599953 0.000031 0.014727
										CHANNELS 6 Xposition Yposition Zposition Xrotation Yrotation Zrotation
										JOINT mixamorig:LeftHandPinky3
										{
											OFFSET 2.100021 0.000015 0.007705
											CHANNELS 6 Xposition Yposition Zposition Xrotation Yrotation Zrotation
											JOINT mixamorig:LeftHandPinky4
											{
												OFFSET 2.125504 0.000031 0.007517
												CHANNELS 6 Xposition Yposition Zposition Xrotation Yrotation Zrotation
												End Site
												{
													OFFSET 212.550781 0.000000 0.625752
												}
											}
										}
									}
								}
							}
						}
					}
				}
			}
		}
	}
	JOINT mixamorig:RightUpLeg
	{
		OFFSET -8.207787 -6.751648 -1.599560
		CHANNELS 6 Xposition Yposition Zposition Xrotation Yrotation Zrotation
		JOINT mixamorig:RightLeg
		{
			OFFSET -0.000002 -44.370117 0.345942
			CHANNELS 6 Xposition Yposition Zposition Xrotation Yrotation Zrotation
			JOINT mixamorig:RightFoot
			{
				OFFSET 0.000003 -44.423679 -3.043532
				CHANNELS 6 Xposition Yposition Zposition Xrotation Yrotation Zrotation
				JOINT mixamorig:RightToeBase
				{
					OFFSET -0.000002 -8.728671 10.710558
					CHANNELS 6 Xposition Yposition Zposition Xrotation Yrotation Zrotation
					JOINT mixamorig:RightToe_End
					{
						OFFSET -0.000001 -0.000679 9.278119
						CHANNELS 6 Xposition Yposition Zposition Xrotation Yrotation Zrotation
						End Site
						{
							OFFSET 0.000000 -0.067690 927.812134
						}
					}
				}
			}
		}
	}
	JOINT mixamorig:LeftUpLeg
	{
		OFFSET 8.207793 -6.751686 -1.599556
		CHANNELS 6 Xposition Yposition Zposition Xrotation Yrotation Zrotation
		JOINT mixamorig:LeftLeg
		{
			OFFSET -0.000004 -44.370014 0.346954
			CHANNELS 6 Xposition Yposition Zposition Xrotation Yrotation Zrotation
			JOINT mixamorig:LeftFoot
			{
				OFFSET -0.000001 -44.423672 -3.044401
				CHANNELS 6 Xposition Yposition Zposition Xrotation Yrotation Zrotation
				JOINT mixamorig:LeftToeBase
				{
					OFFSET -0.000002 -8.728669 10.710558
					CHANNELS 6 Xposition Yposition Zposition Xrotation Yrotation Zrotation
					JOINT mixamorig:LeftToe_End
					{
						OFFSET -0.000003 -0.000679 9.278133
						CHANNELS 6 Xposition Yposition Zposition Xrotation Yrotation Zrotation
						End Site
						{
							OFFSET 0.000000 -0.068021 927.813477
						}
					}
				}
			}
		}
	}
}
MOTION
Frames: 3
Frame Time: 0.033333
0.000006 104.270477 1.554256 0.000010 0.000003 -0.000113 -0.000005 10.181587 0.131522 0.000001 -0.000003 0.000084 -0.000000 9.893967 -1.470711 0.000001 0.000000 -0.000000 -0.000000 9.220802 -1.370642 0.000000 -0.000000 -0.000000 0.000001 16.740433 -2.049030 0.000000 -0.000000 -0.000000 0.000000 9.617859 1.685014 0.000000 0.000000 0.000000 0.000002 22.037384 7.501101 0.000000 -0.000000 0.000000 -4.569968 11.014880 -2.160881 0.000008 0.000001 -0.000038 -10.592877 -0.524690 -2.231996 74.412042 11.624478 -8.838231 -27.841532 0.000011 0.000553 -61.172574 111.662268 82.095930 -28.328829 0.000021 0.000022 -0.000316 -0.000045 0.000007 -2.464435 -1.573942 2.682387 -26.025526 -152.842777 34.022801 -3.215281 -1.872537 1.924642 156.011766 33.769784 15.155495 -2.654956 -1.527901 1.513079 152.557931 25.277108 -40.780577 -2.018833 -1.151998 1.108058 -0.000002 0.000006 0.000002 -9.108382 -0.517545 2.260133 97.800796 17.137582 -19.653536 -3.700097 0.000309 0.001494 95.236415 15.683947 -17.139241 -2.850114 0.000361 -0.000251 93.998347 12.235329 -13.111947 -2.772165 -0.000018 -0.000023 -0.000005 -0.000001 0.000001 -9.532583 0.000274 0.000250 95.745462 14.184385 -15.819579 -3.700082 0.000329 0.003992 95.712862 12.386555 -13.571022 -2.950063 0.000336 -0.001800 94.275189 11.640175 -12.528228 -2.946614 -0.000001 -0.000154 -0.000003 0.000000 -0.000001 -9.103683 -0.042742 -1.864862 94.730749 15.141467 -16.381683 -3.379332 0.000317 -0.000786 96.969480 10.750117 -12.154305 -2.889768 0.000344 0.000648 98.319651 7.598914 -8.839735 -2.638813 0.000016 0.000942 0.000004 0.000001 -0.000002 -8.076735 -0.486367 -3.806034 89.326273 14.980707 -14.661633 -3.600043 0.000290 -0.003496 92.359286 9.025403 -9.030760 -2.100023 0.000297 -0.005489 92.364846 5.413297 -5.413292 -2.115786 -0.000037 -0.003684 0.000004 0.000000 -0.000002 4.570446 11.014691 -2.160851 -0.000018 0.000010 -0.000021 10.592370 -0.524508 -2.232300 70.016857 0.428801 -0.300265 27.841822 0.000094 -0.000203 94.630119 -67.652245 72.001887 28.328854 -0.000029 0.000021 0.000022 -0.000089 0.000000 2.466233 -1.576084 2.681853 6.681371 163.031151 -93.866142 3.217787 -1.871717 1.916381 164.478537 -31.849493 0.495142 2.656103 -1.528663 1.514488 141.383236 -26.960044 54.765048 2.020906 -1.154068 1.115150 0.000003 0.000001 0.000002 9.109371 -0.517859 2.259733 84.001334 -16.497750 14.863132 3.700048 0.000127 -0.000460 81.280781 -16.702630 14.378218 2.850059 0.000164 0.000211 79.135890 -14.690996 12.159590 2.774885 -0.000047 -0.000026 0.000000 -0.000001 -0.000002 9.533460 0.000200 -0.000089 82.211811 -15.602254 13.625858 3.700060 0.000164 -0.000387 85.585556 -14.989316 13.885479 2.950067 0.000155 -0.000203 85.646037 -17.863260 16.576649 2.952862 -0.000025 0.000065 0.000000 0.000002 0.000001 9.104580 -0.042863 -1.865210 80.116814 -14.933765 12.579336 3.150058 0.000195 -0.000086 85.848340 -13.833022 12.875456 2.950013 0.000168 -0.000067 86.907949 -14.957727 14.181483 2.644320 0.000030 0.000056 0.000000 0.000001 -0.000001 8.077833 -0.486749 -3.806414 69.580722 -16.240726 11.738794 3.600003 0.000162 0.014560 71.911428 -15.343258 11.545128 2.100039 0.000154 0.007547 74.726211 -14.438352 11.431309 2.125509 -0.000033 0.007515 0.000001 0.000001 -0.000002 -8.207786 -6.751667 -1.599560 -0.077001 -0.000003 0.000080 -0.000002 -44.370110 0.345938 0.153719 -0.000000 -0.000000 0.000000 -44.423679 -3.043532 -0.076700 0.000000 -0.000002 -0.000006 -8.728667 10.710559 -0.000009 -0.000000 -0.000000 -0.000001 -0.000679 9.278123 0.000000 -0.000000 -0.000000 8.207792 -6.751710 -1.599556 -0.074518 -0.000003 0.000081 -0.000002 -44.370014 0.346960 0.148822 0.000002 0.000000 -0.000001 -44.423664 -3.044403 -0.074314 0.000000 -0.000002 -0.000004 -8.728671 10.710558 0.000007 -0.000000 -0.000000 0.000000 -0.000680 9.278137 -0.000000 0.000000 -0.000001 
0.000006 104.270477 1.554256 0.000010 0.000003 -0.000113 -0.000005 10.181587 0.131522 0.000001 -0.000003 0.000084 -0.000000 9.893967 -1.470711 0.000001 0.000000 -0.000000 -0.000000 9.220802 -1.370642 0.000000 -0.000000 -0.000000 0.000001 16.740433 -2.049030 0.000000 -0.000000 -0.000000 0.000000 9.617859 1.685014 0.000000 0.000000 0.000000 0.000002 22.037384 7.501101 0.000000 -0.000000 0.000000 -4.569968 11.014880 -2.160881 0.000008 0.000001 -0.000038 -10.592877 -0.524724 -2.231948 75.141834 20.612932 -15.927364 -27.841528 0.000011 0.000540 -59.343518 109.590406 77.842389 -28.328856 0.000020 0.000024 -0.000318 -0.000048 0.000009 -2.464433 -1.573869 2.682370 -35.332941 -155.850136 17.260914 -3.215264 -1.872535 1.924626 152.525446 33.963447 21.361454 -2.654949 -1.527867 1.513074 151.056382 26.614968 -33.209876 -2.018833 -1.152006 1.108066 0.000001 0.000000 0.000002 -9.108394 -0.517556 2.260122 96.019735 17.320586 -19.261198 -3.700090 0.000302 0.001504 93.728671 15.477513 -16.479419 -2.850078 0.000360 -0.000271 92.477298 11.499985 -12.003665 -2.772156 -0.000002 -0.000017 0.000003 -0.000000 0.000000 -9.532595 0.000267 0.000248 94.554782 15.454336 -16.869951 -3.700072 0.000325 0.003976 95.004298 12.290619 -13.300688 -2.950061 0.000321 -0.001796 96.306828 11.068901 -12.342323 -2.946625 0.000014 -0.000155 -0.000006 0.000001 -0.000000 -9.103695 -0.042745 -1.864881 93.414933 16.836864 -17.808161 -3.379328 0.000331 -0.000787 97.044113 9.893538 -11.203203 -2.889739 0.000373 0.000656 100.740427 6.092259 -7.407676 -2.638829 -0.000007 0.000941 -0.000000 0.000001 -0.000001 -8.076756 -0.486376 -3.806011 88.613508 16.759906 -16.217975 -3.600035 0.000296 -0.003494 92.158042 8.528943 -8.486261 -2.100016 0.000330 -0.005462 95.353334 4.672155 -4.892376 -2.115767 -0.000056 -0.003686 0.000001 -0.000000 -0.000004 4.570446 11.014691 -2.160851 -0.000018 0.000010 -0.000021 10.592361 -0.524526 -2.232283 70.396041 5.671648 -4.002184 27.841812 0.000071 -0.000212 94.338607 -69.325887 73.440468 28.328846 -0.000014 0.000024 0.000018 -0.000089 0.000000 2.466242 -1.575936 2.681792 18.724390 187.014063 -134.015511 3.217878 -1.871884 1.916461 169.490830 -15.223631 55.706900 2.656110 -1.528698 1.514507 143.335085 -25.491600 64.852585 2.020880 -1.154073 1.115150 -0.000000 0.000002 0.000004 9.109372 -0.517876 2.259756 83.209661 -21.795701 19.391991 3.700049 0.000130 -0.000470 81.521682 -14.248619 12.313205 2.850035 0.000178 0.000203 80.711983 -10.315291 8.770840 2.774884 -0.000029 -0.000030 -0.000000 -0.000001 0.000001 9.533453 0.000178 -0.000084 81.558278 -20.269548 17.521932 3.700050 0.000176 -0.000398 85.800297 -11.134467 10.348819 2.950045 0.000181 -0.000195 86.348918 -9.799124 9.199121 2.952878 -0.000017 0.000070 -0.000000 -0.000002 0.000001 9.104579 -0.042870 -1.865223 81.218087 -19.898945 17.108022 3.150041 0.000169 -0.000093 85.748367 -12.996053 12.074606 2.950005 0.000198 -0.000080 85.649718 -9.447817 8.760781 2.644346 0.000033 0.000061 -0.000000 -0.000000 0.000001 8.077829 -0.486744 -3.806394 72.365690 -20.714806 15.685116 3.599994 0.000155 0.014573 71.806250 -17.044539 12.773868 2.100048 0.000164 0.007530 73.535067 -11.528669 8.989226 2.125506 0.000000 0.007522 0.000002 0.000001 -0.000001 -8.207786 -6.751667 -1.599560 -0.077001 -0.000003 0.000080 -0.000002 -44.370110 0.345938 0.153719 -0.000000 -0.000000 0.000000 -44.423679 -3.043532 -0.076700 0.000000 -0.000002 -0.000006 -8.728667 10.710559 -0.000009 -0.000000 -0.000000 -0.000001 -0.000679 9.278123 0.000000 -0.000000 -0.000000 8.207792 -6.751710 -1.599556 -0.074518 -0.000003 0.000081 -0.000002 -44.370014 0.346960 0.148822 0.000002 0.000000 -0.000001 -44.423664 -3.044403 -0.074314 0.000000 -0.000002 -0.000004 -8.728671 10.710558 0.000007 -0.000000 -0.000000 0.000000 -0.000680 9.278137 -0.000000 0.000000 -0.000001 
0.000006 104.270477 1.554256 0.000010 0.000003 -0.000113 -0.000005 10.181587 0.131522 0.000001 -0.000003 0.000084 -0.000000 9.893967 -1.470711 0.000001 0.000000 -0.000000 -0.000000 9.220802 -1.370642 0.000000 -0.000000 -0.000000 0.000001 16.740433 -2.049030 0.000000 -0.000000 -0.000000 0.000000 9.617859 1.685014 0.000000 0.000000 0.000000 0.000002 22.037384 7.501101 0.000000 -0.000000 0.000000 -4.569968 11.014880 -2.160881 0.000008 0.000001 -0.000038 -10.592876 -0.524756 -2.231923 75.103189 26.810904 -20.765327 -27.841522 0.000029 0.000540 -58.517967 106.824924 74.083435 -28.328840 0.000004 0.000024 -0.000321 -0.000047 0.000009 -2.464407 -1.573886 2.682374 -35.138212 -156.143944 17.824618 -3.215255 -1.872517 1.924624 152.534189 33.921458 21.072397 -2.654952 -1.527895 1.513092 150.905954 26.659658 -33.057252 -2.018827 -1.152006 1.108065 -0.000000 -0.000002 0.000005 -9.108377 -0.517556 2.260115 95.832615 17.429613 -19.319398 -3.700087 0.000304 0.001516 93.901427 15.519202 -16.573095 -2.850085 0.000357 -0.000282 92.752179 11.498274 -12.059240 -2.772170 -0.000017 -0.000017 -0.000000 0.000001 -0.000001 -9.532579 0.000277 0.000238 94.794317 15.701707 -17.208286 -3.700075 0.000331 0.003982 95.350062 12.457155 -13.563031 -2.950052 0.000325 -0.001800 97.011260 11.058269 -12.482847 -2.946628 0.000003 -0.000156 -0.000002 0.000000 -0.000002 -9.103682 -0.042773 -1.864884 93.555471 17.191129 -18.227002 -3.379331 0.000319 -0.000786 96.840403 10.208426 -11.517655 -2.889747 0.000350 0.000657 101.006443 6.184869 -7.554970 -2.638809 -0.000005 0.000941 -0.000001 -0.000001 -0.000000 -8.076746 -0.486405 -3.806020 88.289580 17.126682 -16.483649 -3.600046 0.000288 -0.003505 91.816908 9.085183 -9.007372 -2.100012 0.000315 -0.005475 95.861842 5.047043 -5.349996 -2.115761 -0.000050 -0.003675 0.000003 0.000000 -0.000003 4.570446 11.014691 -2.160851 -0.000018 0.000010 -0.000021 10.592370 -0.524515 -2.232312 70.406922 0.220974 -0.155820 27.841818 0.000057 -0.000225 94.713311 -71.294491 75.818891 28.328838 -0.000044 0.000017 0.000021 -0.000088 -0.000000 2.466240 -1.575909 2.681791 18.348707 189.017152 -136.509868 3.217884 -1.871890 1.916460 168.591909 -13.768099 60.705157 2.656115 -1.528692 1.514513 143.745661 -25.201364 66.080024 2.020906 -1.154078 1.115151 -0.000000 0.000004 0.000002 9.109385 -0.517879 2.259739 83.344454 -21.941694 19.568017 3.700047 0.000148 -0.000466 81.676433 -14.635755 12.682633 2.850038 0.000175 0.000195 81.062249 -10.450211 8.940709 2.774875 -0.000018 -0.000026 0.000001 -0.000000 -0.000001 9.533463 0.000185 -0.000079 81.799151 -20.701747 17.972693 3.700036 0.000176 -0.000404 85.782805 -11.218617 10.423941 2.950049 0.000185 -0.000215 86.496477 -9.707961 9.136965 2.952868 -0.000013 0.000061 -0.000000 0.000002 -0.000001 9.104589 -0.042870 -1.865220 81.574145 -20.275720 17.541907 3.150059 0.000199 -0.000099 86.153158 -12.964552 12.130288 2.950015 0.000182 -0.000095 85.900318 -9.280777 8.643491 2.644330 0.000029 0.000057 0.000000 -0.000000 0.000001 8.077850 -0.486751 -3.806399 72.197934 -20.661353 15.597879 3.600008 0.000144 0.014574 71.305167 -16.837026 12.506536 2.100036 0.000161 0.007552 72.567434 -11.319751 8.677799 2.125505 0.000001 0.007514 0.000000 -0.000000 -0.000000 -8.207786 -6.751667 -1.599560 -0.077001 -0.000003 0.000080 -0.000002 -44.370110 0.345938 0.153719 -0.000000 -0.000000 0.000000 -44.423679 -3.043532 -0.076700 0.000000 -0.000002 -0.000006 -8.728667 10.710559 -0.000009 -0.000000 -0.000000 -0.000001 -0.000679 9.278123 0.000000 -0.000000 -0.000000 8.207792 -6.751710 -1.599556 -0.074518 -0.000003 0.000081 -0.000002 -44.370014 0.346960 0.148822 0.000002 0.000000 -0.000001 -44.423664 -3.044403 -0.074314 0.000000 -0.000002 -0.000004 -8.728671 10.710558 0.000007 -0.000000 -0.000000 0.000000 -0.000680 9.278137 -0.000000 0.000000 -0.000001 
